<mxfile host="app.diagrams.net" modified="2024-04-18T12:48:31.561Z" agent="Mozilla/5.0 (Windows NT 10.0; Win64; x64) AppleWebKit/537.36 (KHTML, like Gecko) Chrome/123.0.0.0 Safari/537.36" etag="gU7RITklSHGGun20inaO" version="24.2.5" type="github">
  <diagram id="C5RBs43oDa-KdzZeNtuy" name="Page-1">
    <mxGraphModel dx="1029" dy="683" grid="0" gridSize="10" guides="1" tooltips="1" connect="1" arrows="1" fold="1" page="0" pageScale="1" pageWidth="827" pageHeight="1169" background="#000000" math="0" shadow="0">
      <root>
        <mxCell id="WIyWlLk6GJQsqaUBKTNV-0" />
        <mxCell id="WIyWlLk6GJQsqaUBKTNV-1" parent="WIyWlLk6GJQsqaUBKTNV-0" />
        <mxCell id="WIyWlLk6GJQsqaUBKTNV-2" value="" style="rounded=0;html=1;jettySize=auto;orthogonalLoop=1;fontSize=11;endArrow=classicThin;endFill=1;endSize=8;strokeWidth=1;shadow=0;labelBackgroundColor=none;edgeStyle=orthogonalEdgeStyle;strokeColor=#FFFFFF;" parent="WIyWlLk6GJQsqaUBKTNV-1" source="WIyWlLk6GJQsqaUBKTNV-3" target="WIyWlLk6GJQsqaUBKTNV-6" edge="1">
          <mxGeometry relative="1" as="geometry" />
        </mxCell>
        <mxCell id="WIyWlLk6GJQsqaUBKTNV-3" value="" style="rounded=1;whiteSpace=wrap;html=1;fontSize=12;glass=0;strokeWidth=1;shadow=0;strokeColor=#FFFFFF;fillColor=#000000;" parent="WIyWlLk6GJQsqaUBKTNV-1" vertex="1">
          <mxGeometry x="160" y="30" width="120" height="30" as="geometry" />
        </mxCell>
        <mxCell id="WIyWlLk6GJQsqaUBKTNV-4" value="Yes" style="rounded=0;html=1;jettySize=auto;orthogonalLoop=1;fontSize=11;endArrow=block;endFill=0;endSize=8;strokeWidth=1;shadow=0;labelBackgroundColor=none;edgeStyle=orthogonalEdgeStyle;strokeColor=#FFFFFF;" parent="WIyWlLk6GJQsqaUBKTNV-1" source="WIyWlLk6GJQsqaUBKTNV-6" target="WIyWlLk6GJQsqaUBKTNV-10" edge="1">
          <mxGeometry y="20" relative="1" as="geometry">
            <mxPoint as="offset" />
          </mxGeometry>
        </mxCell>
        <mxCell id="WIyWlLk6GJQsqaUBKTNV-6" value="Lamp&lt;br&gt;plugged in?" style="rhombus;whiteSpace=wrap;html=1;shadow=0;fontFamily=Helvetica;fontSize=12;align=center;strokeWidth=1;spacing=6;spacingTop=-4;strokeColor=#FFFFFF;" parent="WIyWlLk6GJQsqaUBKTNV-1" vertex="1">
          <mxGeometry x="170" y="170" width="100" height="80" as="geometry" />
        </mxCell>
        <mxCell id="WIyWlLk6GJQsqaUBKTNV-8" value="No" style="rounded=0;html=1;jettySize=auto;orthogonalLoop=1;fontSize=11;endArrow=block;endFill=0;endSize=8;strokeWidth=1;shadow=0;labelBackgroundColor=none;edgeStyle=orthogonalEdgeStyle;strokeColor=#FFFFFF;" parent="WIyWlLk6GJQsqaUBKTNV-1" source="WIyWlLk6GJQsqaUBKTNV-10" target="WIyWlLk6GJQsqaUBKTNV-11" edge="1">
          <mxGeometry x="0.3333" y="20" relative="1" as="geometry">
            <mxPoint as="offset" />
          </mxGeometry>
        </mxCell>
        <mxCell id="WIyWlLk6GJQsqaUBKTNV-9" value="Yes" style="edgeStyle=orthogonalEdgeStyle;rounded=0;html=1;jettySize=auto;orthogonalLoop=1;fontSize=11;endArrow=block;endFill=0;endSize=8;strokeWidth=1;shadow=0;labelBackgroundColor=none;strokeColor=#FFFFFF;" parent="WIyWlLk6GJQsqaUBKTNV-1" source="WIyWlLk6GJQsqaUBKTNV-10" target="WIyWlLk6GJQsqaUBKTNV-12" edge="1">
          <mxGeometry y="10" relative="1" as="geometry">
            <mxPoint as="offset" />
          </mxGeometry>
        </mxCell>
        <mxCell id="WIyWlLk6GJQsqaUBKTNV-10" value="Bulb&lt;br&gt;burned out?" style="rhombus;whiteSpace=wrap;html=1;shadow=0;fontFamily=Helvetica;fontSize=12;align=center;strokeWidth=1;spacing=6;spacingTop=-4;strokeColor=#FFFFFF;" parent="WIyWlLk6GJQsqaUBKTNV-1" vertex="1">
          <mxGeometry x="170" y="290" width="100" height="80" as="geometry" />
        </mxCell>
        <mxCell id="WIyWlLk6GJQsqaUBKTNV-11" value="Repair Lamp" style="rounded=1;whiteSpace=wrap;html=1;fontSize=12;glass=0;strokeWidth=1;shadow=0;strokeColor=#FFFFFF;" parent="WIyWlLk6GJQsqaUBKTNV-1" vertex="1">
          <mxGeometry x="160" y="430" width="120" height="40" as="geometry" />
        </mxCell>
        <mxCell id="WIyWlLk6GJQsqaUBKTNV-12" value="Replace Bulb" style="rounded=1;whiteSpace=wrap;html=1;fontSize=12;glass=0;strokeWidth=1;shadow=0;strokeColor=#FFFFFF;" parent="WIyWlLk6GJQsqaUBKTNV-1" vertex="1">
          <mxGeometry x="320" y="310" width="120" height="40" as="geometry" />
        </mxCell>
        <mxCell id="OmvAzgWS2fx1XK6-3IYc-1" value="&lt;font color=&quot;#ffffff&quot;&gt;s硕士&lt;/font&gt;" style="rounded=1;whiteSpace=wrap;html=1;fontSize=12;glass=0;strokeWidth=1;shadow=0;strokeColor=#FFFFFF;fillColor=#000000;" vertex="1" parent="WIyWlLk6GJQsqaUBKTNV-1">
          <mxGeometry x="330" y="120" width="120" height="30" as="geometry" />
        </mxCell>
        <mxCell id="OmvAzgWS2fx1XK6-3IYc-3" value="&lt;font color=&quot;#ffffff&quot;&gt;s硕士&lt;/font&gt;" style="rounded=1;whiteSpace=wrap;html=1;fontSize=12;glass=0;strokeWidth=1;shadow=0;strokeColor=#FFFFFF;fillColor=#000000;" vertex="1" parent="WIyWlLk6GJQsqaUBKTNV-1">
          <mxGeometry x="340" y="130" width="120" height="30" as="geometry" />
        </mxCell>
        <mxCell id="OmvAzgWS2fx1XK6-3IYc-4" value="&lt;font color=&quot;#ffffff&quot;&gt;s硕士&lt;/font&gt;" style="rounded=1;whiteSpace=wrap;html=1;fontSize=12;glass=0;strokeWidth=1;shadow=0;strokeColor=#FFFFFF;fillColor=#000000;" vertex="1" parent="WIyWlLk6GJQsqaUBKTNV-1">
          <mxGeometry x="350" y="140" width="120" height="30" as="geometry" />
        </mxCell>
        <mxCell id="OmvAzgWS2fx1XK6-3IYc-5" value="&lt;font color=&quot;#ffffff&quot;&gt;s硕士&lt;/font&gt;" style="rounded=1;whiteSpace=wrap;html=1;fontSize=12;glass=0;strokeWidth=1;shadow=0;strokeColor=#FFFFFF;fillColor=#000000;" vertex="1" parent="WIyWlLk6GJQsqaUBKTNV-1">
          <mxGeometry x="360" y="150" width="120" height="30" as="geometry" />
        </mxCell>
        <mxCell id="OmvAzgWS2fx1XK6-3IYc-6" value="&lt;font color=&quot;#ffffff&quot;&gt;s硕士&lt;/font&gt;" style="rounded=1;whiteSpace=wrap;html=1;fontSize=12;glass=0;strokeWidth=1;shadow=0;strokeColor=#FFFFFF;fillColor=#000000;" vertex="1" parent="WIyWlLk6GJQsqaUBKTNV-1">
          <mxGeometry x="370" y="160" width="120" height="30" as="geometry" />
        </mxCell>
        <mxCell id="OmvAzgWS2fx1XK6-3IYc-7" value="" style="rounded=1;whiteSpace=wrap;html=1;fontSize=12;glass=0;strokeWidth=1;shadow=0;strokeColor=#FFFFFF;fillColor=#000000;" vertex="1" parent="WIyWlLk6GJQsqaUBKTNV-1">
          <mxGeometry x="380" y="170" width="120" height="30" as="geometry" />
        </mxCell>
        <mxCell id="OmvAzgWS2fx1XK6-3IYc-9" value="" style="verticalLabelPosition=bottom;verticalAlign=top;html=1;shape=card;whiteSpace=wrap;size=20;arcSize=12;flipH=1;fillColor=#000000;strokeColor=#FFFFFF;" vertex="1" parent="WIyWlLk6GJQsqaUBKTNV-1">
          <mxGeometry x="640" y="70" width="150" height="90" as="geometry" />
        </mxCell>
        <mxCell id="OmvAzgWS2fx1XK6-3IYc-10" value="&lt;span style=&quot;color: rgb(255, 255, 255); font-size: 12px; font-style: normal; font-variant-ligatures: normal; font-variant-caps: normal; letter-spacing: normal; orphans: 2; text-align: center; text-indent: 0px; text-transform: none; widows: 2; word-spacing: 0px; -webkit-text-stroke-width: 0px; white-space: normal; text-decoration-thickness: initial; text-decoration-style: initial; text-decoration-color: initial; float: none; display: inline !important;&quot;&gt;Question 1...&lt;/span&gt;" style="text;whiteSpace=wrap;html=1;fontFamily=Courier New;fontStyle=0" vertex="1" parent="WIyWlLk6GJQsqaUBKTNV-1">
          <mxGeometry x="650" y="70" width="110" height="20" as="geometry" />
        </mxCell>
        <mxCell id="OmvAzgWS2fx1XK6-3IYc-11" value="&lt;span style=&quot;color: rgb(255, 255, 255); font-size: 12px; font-style: normal; font-variant-ligatures: normal; font-variant-caps: normal; letter-spacing: normal; orphans: 2; text-align: center; text-indent: 0px; text-transform: none; widows: 2; word-spacing: 0px; -webkit-text-stroke-width: 0px; white-space: normal; text-decoration-thickness: initial; text-decoration-style: initial; text-decoration-color: initial; float: none; display: inline !important;&quot;&gt;Question 2&lt;/span&gt;&lt;span style=&quot;color: rgb(255, 255, 255); text-align: center;&quot;&gt;...&lt;/span&gt;" style="text;whiteSpace=wrap;html=1;fontFamily=Courier New;fontStyle=0" vertex="1" parent="WIyWlLk6GJQsqaUBKTNV-1">
          <mxGeometry x="650" y="90" width="110" height="20" as="geometry" />
        </mxCell>
        <mxCell id="OmvAzgWS2fx1XK6-3IYc-12" value="&lt;span style=&quot;color: rgb(255, 255, 255); font-size: 12px; font-style: normal; font-variant-ligatures: normal; font-variant-caps: normal; letter-spacing: normal; orphans: 2; text-align: center; text-indent: 0px; text-transform: none; widows: 2; word-spacing: 0px; -webkit-text-stroke-width: 0px; white-space: normal; text-decoration-thickness: initial; text-decoration-style: initial; text-decoration-color: initial; float: none; display: inline !important;&quot;&gt;Question 3&lt;/span&gt;&lt;span style=&quot;color: rgb(255, 255, 255); text-align: center;&quot;&gt;...&lt;/span&gt;" style="text;whiteSpace=wrap;html=1;fontFamily=Courier New;fontStyle=0" vertex="1" parent="WIyWlLk6GJQsqaUBKTNV-1">
          <mxGeometry x="650" y="110" width="110" height="20" as="geometry" />
        </mxCell>
        <mxCell id="OmvAzgWS2fx1XK6-3IYc-14" value="" style="rounded=0;whiteSpace=wrap;html=1;fillColor=none;strokeColor=#FFFFFF;fontStyle=1;fontSize=11;" vertex="1" parent="WIyWlLk6GJQsqaUBKTNV-1">
          <mxGeometry x="700" y="137.5" width="80" height="15" as="geometry" />
        </mxCell>
        <mxCell id="OmvAzgWS2fx1XK6-3IYc-15" value="" style="verticalLabelPosition=bottom;verticalAlign=top;html=1;shape=card;whiteSpace=wrap;size=20;arcSize=12;flipH=1;fillColor=#000000;strokeColor=#FFFFFF;" vertex="1" parent="WIyWlLk6GJQsqaUBKTNV-1">
          <mxGeometry x="640" y="180" width="150" height="75" as="geometry" />
        </mxCell>
        <mxCell id="OmvAzgWS2fx1XK6-3IYc-16" value="&lt;span style=&quot;color: rgb(255, 255, 255); font-size: 12px; font-style: normal; font-variant-ligatures: normal; font-variant-caps: normal; letter-spacing: normal; orphans: 2; text-align: center; text-indent: 0px; text-transform: none; widows: 2; word-spacing: 0px; -webkit-text-stroke-width: 0px; white-space: normal; text-decoration-thickness: initial; text-decoration-style: initial; text-decoration-color: initial; float: none; display: inline !important;&quot;&gt;Discription of&amp;nbsp; the experimental platform&lt;/span&gt;" style="text;whiteSpace=wrap;html=1;fontFamily=Courier New;fontStyle=0" vertex="1" parent="WIyWlLk6GJQsqaUBKTNV-1">
          <mxGeometry x="650" y="180" width="135" height="20" as="geometry" />
        </mxCell>
        <mxCell id="OmvAzgWS2fx1XK6-3IYc-18" value="&lt;div style=&quot;text-align: center;&quot;&gt;&lt;span style=&quot;background-color: initial;&quot;&gt;&lt;font color=&quot;#ffffff&quot;&gt;click the link&amp;nbsp;&lt;/font&gt;&lt;/span&gt;&lt;/div&gt;" style="text;whiteSpace=wrap;html=1;fontFamily=Courier New;fontStyle=1" vertex="1" parent="WIyWlLk6GJQsqaUBKTNV-1">
          <mxGeometry x="650" y="229" width="150" height="20" as="geometry" />
        </mxCell>
        <mxCell id="OmvAzgWS2fx1XK6-3IYc-21" value="&lt;span style=&quot;color: rgb(255, 255, 255); font-family: &amp;quot;Courier New&amp;quot;; font-size: 11px; font-style: normal; font-variant-ligatures: normal; font-variant-caps: normal; font-weight: 700; letter-spacing: normal; orphans: 2; text-align: center; text-indent: 0px; text-transform: none; widows: 2; word-spacing: 0px; -webkit-text-stroke-width: 0px; white-space: normal; text-decoration-thickness: initial; text-decoration-style: initial; text-decoration-color: initial; float: none; display: inline !important;&quot;&gt;input&amp;nbsp; version_ID&lt;/span&gt;" style="text;whiteSpace=wrap;html=1;" vertex="1" parent="WIyWlLk6GJQsqaUBKTNV-1">
          <mxGeometry x="660" y="130" width="130" height="30" as="geometry" />
        </mxCell>
        <mxCell id="OmvAzgWS2fx1XK6-3IYc-24" value="" style="endArrow=none;dashed=1;html=1;rounded=0;strokeWidth=2;strokeColor=#FFFFFF;" edge="1" parent="WIyWlLk6GJQsqaUBKTNV-1">
          <mxGeometry width="50" height="50" relative="1" as="geometry">
            <mxPoint x="825.3463309151786" y="199" as="sourcePoint" />
            <mxPoint x="825" y="37" as="targetPoint" />
          </mxGeometry>
        </mxCell>
        <mxCell id="OmvAzgWS2fx1XK6-3IYc-25" value="" style="endArrow=none;dashed=1;html=1;rounded=0;strokeWidth=2;strokeColor=#FFFFFF;" edge="1" parent="WIyWlLk6GJQsqaUBKTNV-1">
          <mxGeometry width="50" height="50" relative="1" as="geometry">
            <mxPoint x="1028.3463309151784" y="201" as="sourcePoint" />
            <mxPoint x="1028" y="39" as="targetPoint" />
          </mxGeometry>
        </mxCell>
        <mxCell id="OmvAzgWS2fx1XK6-3IYc-27" value="" style="endArrow=classic;html=1;rounded=0;strokeColor=#FFFFFF;entryX=0;entryY=0.5;entryDx=0;entryDy=0;exitX=0.723;exitY=0.787;exitDx=0;exitDy=0;exitPerimeter=0;" edge="1" parent="WIyWlLk6GJQsqaUBKTNV-1" source="OmvAzgWS2fx1XK6-3IYc-18" target="OmvAzgWS2fx1XK6-3IYc-29">
          <mxGeometry width="50" height="50" relative="1" as="geometry">
            <mxPoint x="845" y="249" as="sourcePoint" />
            <mxPoint x="904.1000000000001" y="245.56799999999998" as="targetPoint" />
          </mxGeometry>
        </mxCell>
        <mxCell id="OmvAzgWS2fx1XK6-3IYc-28" value="&lt;font color=&quot;#ff642b&quot;&gt;&lt;b&gt;&lt;span style=&quot;font-family: &amp;quot;Courier New&amp;quot;; font-size: 11px; font-style: normal; font-variant-ligatures: normal; font-variant-caps: normal; letter-spacing: normal; orphans: 2; text-align: center; text-indent: 0px; text-transform: none; widows: 2; word-spacing: 0px; -webkit-text-stroke-width: 0px; white-space: normal; text-decoration-thickness: initial; text-decoration-style: initial; text-decoration-color: initial; float: none; display: inline !important;&quot;&gt;+ &lt;/span&gt;&lt;span style=&quot;font-family: &amp;quot;Courier New&amp;quot;; font-size: 11px; font-style: normal; font-variant-ligatures: normal; font-variant-caps: normal; letter-spacing: normal; orphans: 2; text-align: center; text-indent: 0px; text-transform: none; widows: 2; word-spacing: 0px; -webkit-text-stroke-width: 0px; white-space: normal; text-decoration-thickness: initial; text-decoration-style: initial; text-decoration-color: initial; float: none; display: inline !important;&quot;&gt;version_ID&lt;/span&gt;&lt;/b&gt;&lt;/font&gt;" style="text;whiteSpace=wrap;html=1;" vertex="1" parent="WIyWlLk6GJQsqaUBKTNV-1">
          <mxGeometry x="804" y="220.5" width="140" height="20.5" as="geometry" />
        </mxCell>
        <mxCell id="OmvAzgWS2fx1XK6-3IYc-29" value="&lt;font style=&quot;font-size: 9px;&quot; color=&quot;#ffffff&quot;&gt;ID&lt;/font&gt;" style="rhombus;whiteSpace=wrap;html=1;fillColor=none;strokeColor=#FFFFFF;" vertex="1" parent="WIyWlLk6GJQsqaUBKTNV-1">
          <mxGeometry x="928" y="232" width="51" height="24" as="geometry" />
        </mxCell>
        <mxCell id="OmvAzgWS2fx1XK6-3IYc-80" value="" style="edgeStyle=orthogonalEdgeStyle;rounded=0;orthogonalLoop=1;jettySize=auto;html=1;" edge="1" parent="WIyWlLk6GJQsqaUBKTNV-1" source="OmvAzgWS2fx1XK6-3IYc-44" target="OmvAzgWS2fx1XK6-3IYc-70">
          <mxGeometry relative="1" as="geometry" />
        </mxCell>
        <mxCell id="OmvAzgWS2fx1XK6-3IYc-46" value="" style="verticalLabelPosition=bottom;verticalAlign=top;html=1;shape=card;whiteSpace=wrap;size=8;arcSize=12;flipH=1;fillColor=#000000;strokeColor=#FFFFFF;" vertex="1" parent="WIyWlLk6GJQsqaUBKTNV-1">
          <mxGeometry x="869" y="473" width="50" height="35" as="geometry" />
        </mxCell>
        <mxCell id="OmvAzgWS2fx1XK6-3IYc-52" value="" style="strokeWidth=1;html=1;shape=mxgraph.flowchart.annotation_2;align=left;labelPosition=right;pointerEvents=1;strokeColor=#FFFFFF;rotation=90;" vertex="1" parent="WIyWlLk6GJQsqaUBKTNV-1">
          <mxGeometry x="928.75" y="221.75" width="50" height="119.5" as="geometry" />
        </mxCell>
        <mxCell id="OmvAzgWS2fx1XK6-3IYc-56" value="" style="verticalLabelPosition=bottom;verticalAlign=top;html=1;shape=card;whiteSpace=wrap;size=8;arcSize=12;flipH=1;fillColor=#000000;strokeColor=#FFFFFF;" vertex="1" parent="WIyWlLk6GJQsqaUBKTNV-1">
          <mxGeometry x="999" y="306" width="50" height="35" as="geometry" />
        </mxCell>
        <mxCell id="OmvAzgWS2fx1XK6-3IYc-79" value="" style="edgeStyle=orthogonalEdgeStyle;rounded=0;orthogonalLoop=1;jettySize=auto;html=1;" edge="1" parent="WIyWlLk6GJQsqaUBKTNV-1" source="OmvAzgWS2fx1XK6-3IYc-58" target="OmvAzgWS2fx1XK6-3IYc-76">
          <mxGeometry relative="1" as="geometry" />
        </mxCell>
        <mxCell id="OmvAzgWS2fx1XK6-3IYc-58" value="&lt;div style=&quot;text-align: center;&quot;&gt;&lt;font face=&quot;Courier New&quot; color=&quot;#ff642b&quot;&gt;&lt;span style=&quot;font-size: 11px;&quot;&gt;&lt;b&gt;&amp;nbsp;Gender(2)×Profile(2)×Control(3)&lt;/b&gt;&lt;/span&gt;&lt;/font&gt;&lt;/div&gt;&lt;div style=&quot;text-align: center;&quot;&gt;&lt;font face=&quot;Courier New&quot; color=&quot;#ff642b&quot;&gt;&lt;span style=&quot;font-size: 11px;&quot;&gt;&lt;b&gt;&amp;nbsp; &amp;nbsp; &amp;nbsp; &amp;nbsp; &amp;nbsp; &amp;nbsp;12 versions src data&lt;/b&gt;&lt;/span&gt;&lt;/font&gt;&lt;/div&gt;" style="text;whiteSpace=wrap;html=1;" vertex="1" parent="WIyWlLk6GJQsqaUBKTNV-1">
          <mxGeometry x="955" y="255" width="140" height="23.5" as="geometry" />
        </mxCell>
        <mxCell id="OmvAzgWS2fx1XK6-3IYc-60" value="" style="verticalLabelPosition=bottom;verticalAlign=top;html=1;shape=card;whiteSpace=wrap;size=8;arcSize=12;flipH=1;fillColor=#000000;strokeColor=#FFFFFF;" vertex="1" parent="WIyWlLk6GJQsqaUBKTNV-1">
          <mxGeometry x="987" y="306" width="50" height="35" as="geometry" />
        </mxCell>
        <mxCell id="OmvAzgWS2fx1XK6-3IYc-61" value="" style="verticalLabelPosition=bottom;verticalAlign=top;html=1;shape=card;whiteSpace=wrap;size=8;arcSize=12;flipH=1;fillColor=#000000;strokeColor=#FFFFFF;" vertex="1" parent="WIyWlLk6GJQsqaUBKTNV-1">
          <mxGeometry x="975" y="306" width="50" height="35" as="geometry" />
        </mxCell>
        <mxCell id="OmvAzgWS2fx1XK6-3IYc-62" value="" style="verticalLabelPosition=bottom;verticalAlign=top;html=1;shape=card;whiteSpace=wrap;size=8;arcSize=12;flipH=1;fillColor=#000000;strokeColor=#FFFFFF;" vertex="1" parent="WIyWlLk6GJQsqaUBKTNV-1">
          <mxGeometry x="963" y="306" width="50" height="35" as="geometry" />
        </mxCell>
        <mxCell id="OmvAzgWS2fx1XK6-3IYc-63" value="" style="verticalLabelPosition=bottom;verticalAlign=top;html=1;shape=card;whiteSpace=wrap;size=8;arcSize=12;flipH=1;fillColor=#000000;strokeColor=#FFFFFF;" vertex="1" parent="WIyWlLk6GJQsqaUBKTNV-1">
          <mxGeometry x="951" y="306" width="50" height="35" as="geometry" />
        </mxCell>
        <mxCell id="OmvAzgWS2fx1XK6-3IYc-64" value="" style="verticalLabelPosition=bottom;verticalAlign=top;html=1;shape=card;whiteSpace=wrap;size=8;arcSize=12;flipH=1;fillColor=#000000;strokeColor=#FFFFFF;" vertex="1" parent="WIyWlLk6GJQsqaUBKTNV-1">
          <mxGeometry x="939.5" y="306" width="50" height="35" as="geometry" />
        </mxCell>
        <mxCell id="OmvAzgWS2fx1XK6-3IYc-65" value="" style="verticalLabelPosition=bottom;verticalAlign=top;html=1;shape=card;whiteSpace=wrap;size=8;arcSize=12;flipH=1;fillColor=#000000;strokeColor=#FFFFFF;" vertex="1" parent="WIyWlLk6GJQsqaUBKTNV-1">
          <mxGeometry x="927.5" y="306" width="50" height="35" as="geometry" />
        </mxCell>
        <mxCell id="OmvAzgWS2fx1XK6-3IYc-66" value="" style="verticalLabelPosition=bottom;verticalAlign=top;html=1;shape=card;whiteSpace=wrap;size=8;arcSize=12;flipH=1;fillColor=#000000;strokeColor=#FFFFFF;" vertex="1" parent="WIyWlLk6GJQsqaUBKTNV-1">
          <mxGeometry x="915.5" y="306" width="50" height="35" as="geometry" />
        </mxCell>
        <mxCell id="OmvAzgWS2fx1XK6-3IYc-67" value="" style="verticalLabelPosition=bottom;verticalAlign=top;html=1;shape=card;whiteSpace=wrap;size=8;arcSize=12;flipH=1;fillColor=#000000;strokeColor=#FFFFFF;" vertex="1" parent="WIyWlLk6GJQsqaUBKTNV-1">
          <mxGeometry x="903.5" y="306" width="50" height="35" as="geometry" />
        </mxCell>
        <mxCell id="OmvAzgWS2fx1XK6-3IYc-68" value="" style="verticalLabelPosition=bottom;verticalAlign=top;html=1;shape=card;whiteSpace=wrap;size=8;arcSize=12;flipH=1;fillColor=#000000;strokeColor=#FFFFFF;" vertex="1" parent="WIyWlLk6GJQsqaUBKTNV-1">
          <mxGeometry x="891.5" y="306" width="50" height="35" as="geometry" />
        </mxCell>
        <mxCell id="OmvAzgWS2fx1XK6-3IYc-69" value="" style="verticalLabelPosition=bottom;verticalAlign=top;html=1;shape=card;whiteSpace=wrap;size=8;arcSize=12;flipH=1;fillColor=#000000;strokeColor=#FFFFFF;" vertex="1" parent="WIyWlLk6GJQsqaUBKTNV-1">
          <mxGeometry x="881" y="306" width="50" height="35" as="geometry" />
        </mxCell>
        <mxCell id="OmvAzgWS2fx1XK6-3IYc-70" value="" style="verticalLabelPosition=bottom;verticalAlign=top;html=1;shape=card;whiteSpace=wrap;size=8;arcSize=12;flipH=1;fillColor=#000000;strokeColor=#FFFFFF;" vertex="1" parent="WIyWlLk6GJQsqaUBKTNV-1">
          <mxGeometry x="869" y="306" width="50" height="35" as="geometry" />
        </mxCell>
        <mxCell id="OmvAzgWS2fx1XK6-3IYc-74" value="&lt;span style=&quot;font-family: &amp;quot;Courier New&amp;quot;; font-size: 12px; font-style: normal; font-variant-ligatures: normal; font-variant-caps: normal; font-weight: 400; letter-spacing: normal; orphans: 2; text-align: center; text-indent: 0px; text-transform: none; widows: 2; word-spacing: 0px; -webkit-text-stroke-width: 0px; white-space: normal; text-decoration-thickness: initial; text-decoration-style: initial; text-decoration-color: initial; float: none; display: inline !important;&quot;&gt;&lt;font color=&quot;#ffffff&quot;&gt;...&lt;/font&gt;&lt;/span&gt;" style="text;whiteSpace=wrap;html=1;rotation=90;" vertex="1" parent="WIyWlLk6GJQsqaUBKTNV-1">
          <mxGeometry x="971" y="345" width="30" height="28" as="geometry" />
        </mxCell>
        <mxCell id="OmvAzgWS2fx1XK6-3IYc-75" value="&lt;span style=&quot;font-family: &amp;quot;Courier New&amp;quot;; font-size: 12px; font-style: normal; font-variant-ligatures: normal; font-variant-caps: normal; font-weight: 400; letter-spacing: normal; orphans: 2; text-align: center; text-indent: 0px; text-transform: none; widows: 2; word-spacing: 0px; -webkit-text-stroke-width: 0px; white-space: normal; text-decoration-thickness: initial; text-decoration-style: initial; text-decoration-color: initial; float: none; display: inline !important;&quot;&gt;&lt;font color=&quot;#ffffff&quot;&gt;...&lt;/font&gt;&lt;/span&gt;" style="text;whiteSpace=wrap;html=1;rotation=90;" vertex="1" parent="WIyWlLk6GJQsqaUBKTNV-1">
          <mxGeometry x="995" y="345" width="30" height="28" as="geometry" />
        </mxCell>
        <mxCell id="OmvAzgWS2fx1XK6-3IYc-76" value="&lt;span style=&quot;font-family: &amp;quot;Courier New&amp;quot;; font-size: 12px; font-style: normal; font-variant-ligatures: normal; font-variant-caps: normal; font-weight: 400; letter-spacing: normal; orphans: 2; text-align: center; text-indent: 0px; text-transform: none; widows: 2; word-spacing: 0px; -webkit-text-stroke-width: 0px; white-space: normal; text-decoration-thickness: initial; text-decoration-style: initial; text-decoration-color: initial; float: none; display: inline !important;&quot;&gt;&lt;font color=&quot;#ffffff&quot;&gt;...&lt;/font&gt;&lt;/span&gt;" style="text;whiteSpace=wrap;html=1;rotation=90;" vertex="1" parent="WIyWlLk6GJQsqaUBKTNV-1">
          <mxGeometry x="1016" y="343" width="30" height="32" as="geometry" />
        </mxCell>
        <mxCell id="OmvAzgWS2fx1XK6-3IYc-78" value="" style="endArrow=classic;html=1;rounded=0;strokeColor=#FFFFFF;entryX=0.5;entryY=0;entryDx=0;entryDy=0;entryPerimeter=0;" edge="1" parent="WIyWlLk6GJQsqaUBKTNV-1" target="OmvAzgWS2fx1XK6-3IYc-46">
          <mxGeometry width="50" height="50" relative="1" as="geometry">
            <mxPoint x="893.71" y="341" as="sourcePoint" />
            <mxPoint x="893.71" y="455" as="targetPoint" />
          </mxGeometry>
        </mxCell>
        <mxCell id="OmvAzgWS2fx1XK6-3IYc-44" value="" style="verticalLabelPosition=bottom;verticalAlign=top;html=1;shape=card;whiteSpace=wrap;size=8;arcSize=12;flipH=1;fillColor=#000000;strokeColor=#FFFFFF;" vertex="1" parent="WIyWlLk6GJQsqaUBKTNV-1">
          <mxGeometry x="869" y="365" width="50" height="35" as="geometry" />
        </mxCell>
        <mxCell id="OmvAzgWS2fx1XK6-3IYc-45" value="" style="verticalLabelPosition=bottom;verticalAlign=top;html=1;shape=card;whiteSpace=wrap;size=8;arcSize=12;flipH=1;fillColor=#000000;strokeColor=#FFFFFF;" vertex="1" parent="WIyWlLk6GJQsqaUBKTNV-1">
          <mxGeometry x="869" y="419" width="50" height="35" as="geometry" />
        </mxCell>
        <mxCell id="OmvAzgWS2fx1XK6-3IYc-81" value="&lt;font face=&quot;Courier New&quot;&gt;&lt;span style=&quot;font-size: 11px;&quot;&gt;&lt;b&gt;Input testing data&lt;/b&gt;&lt;/span&gt;&lt;/font&gt;" style="text;whiteSpace=wrap;html=1;fontColor=#FFFFFF;" vertex="1" parent="WIyWlLk6GJQsqaUBKTNV-1">
          <mxGeometry x="923" y="379.5" width="140" height="20.5" as="geometry" />
        </mxCell>
        <mxCell id="OmvAzgWS2fx1XK6-3IYc-82" value="&lt;font face=&quot;Courier New&quot;&gt;&lt;span style=&quot;font-size: 11px;&quot;&gt;&lt;b&gt;Guide of test&lt;/b&gt;&lt;/span&gt;&lt;/font&gt;" style="text;whiteSpace=wrap;html=1;fontColor=#FFFFFF;" vertex="1" parent="WIyWlLk6GJQsqaUBKTNV-1">
          <mxGeometry x="923" y="433.5" width="140" height="20.5" as="geometry" />
        </mxCell>
        <mxCell id="OmvAzgWS2fx1XK6-3IYc-83" value="&lt;font face=&quot;Courier New&quot;&gt;&lt;span style=&quot;font-size: 11px;&quot;&gt;&lt;b&gt;Interacting/testing&lt;/b&gt;&lt;/span&gt;&lt;/font&gt;" style="text;whiteSpace=wrap;html=1;fontColor=#FFFFFF;" vertex="1" parent="WIyWlLk6GJQsqaUBKTNV-1">
          <mxGeometry x="923" y="489" width="140" height="20.5" as="geometry" />
        </mxCell>
        <mxCell id="OmvAzgWS2fx1XK6-3IYc-84" value="" style="rounded=0;whiteSpace=wrap;html=1;fillColor=#B3B3B3;" vertex="1" parent="WIyWlLk6GJQsqaUBKTNV-1">
          <mxGeometry x="873" y="479" width="16" height="16" as="geometry" />
        </mxCell>
        <mxCell id="OmvAzgWS2fx1XK6-3IYc-85" value="" style="rounded=0;whiteSpace=wrap;html=1;fillColor=#B3B3B3;" vertex="1" parent="WIyWlLk6GJQsqaUBKTNV-1">
          <mxGeometry x="873" y="496" width="16" height="8.25" as="geometry" />
        </mxCell>
        <mxCell id="OmvAzgWS2fx1XK6-3IYc-86" value="" style="rounded=0;whiteSpace=wrap;html=1;fillColor=#B3B3B3;" vertex="1" parent="WIyWlLk6GJQsqaUBKTNV-1">
          <mxGeometry x="889.5" y="479" width="24.5" height="9" as="geometry" />
        </mxCell>
        <mxCell id="OmvAzgWS2fx1XK6-3IYc-87" value="" style="rounded=0;whiteSpace=wrap;html=1;fillColor=#B3B3B3;" vertex="1" parent="WIyWlLk6GJQsqaUBKTNV-1">
          <mxGeometry x="889.5" y="489" width="24.5" height="9" as="geometry" />
        </mxCell>
        <mxCell id="OmvAzgWS2fx1XK6-3IYc-88" value="" style="rounded=0;whiteSpace=wrap;html=1;fillColor=#B3B3B3;" vertex="1" parent="WIyWlLk6GJQsqaUBKTNV-1">
          <mxGeometry x="889.5" y="499" width="24.5" height="5" as="geometry" />
        </mxCell>
        <mxCell id="OmvAzgWS2fx1XK6-3IYc-89" value="" style="shape=curlyBracket;whiteSpace=wrap;html=1;rounded=1;flipH=1;labelPosition=right;verticalLabelPosition=middle;align=left;verticalAlign=middle;strokeColor=#FFFFFF;size=0.4711600303649902;" vertex="1" parent="WIyWlLk6GJQsqaUBKTNV-1">
          <mxGeometry x="1073" y="365" width="20" height="142" as="geometry" />
        </mxCell>
        <mxCell id="OmvAzgWS2fx1XK6-3IYc-90" value="" style="edgeStyle=segmentEdgeStyle;endArrow=classic;html=1;curved=0;rounded=0;endSize=8;startSize=8;strokeColor=#FFFFFF;" edge="1" parent="WIyWlLk6GJQsqaUBKTNV-1">
          <mxGeometry width="50" height="50" relative="1" as="geometry">
            <mxPoint x="1088" y="436" as="sourcePoint" />
            <mxPoint x="1138" y="527" as="targetPoint" />
          </mxGeometry>
        </mxCell>
        <mxCell id="OmvAzgWS2fx1XK6-3IYc-92" value="" style="verticalLabelPosition=bottom;verticalAlign=top;html=1;shape=card;whiteSpace=wrap;size=20;arcSize=12;flipH=1;fillColor=#000000;strokeColor=#FFFFFF;" vertex="1" parent="WIyWlLk6GJQsqaUBKTNV-1">
          <mxGeometry x="640" y="571" width="150" height="94" as="geometry" />
        </mxCell>
        <mxCell id="OmvAzgWS2fx1XK6-3IYc-93" value="&lt;span style=&quot;color: rgb(255, 255, 255); font-size: 12px; font-style: normal; font-variant-ligatures: normal; font-variant-caps: normal; letter-spacing: normal; orphans: 2; text-align: center; text-indent: 0px; text-transform: none; widows: 2; word-spacing: 0px; -webkit-text-stroke-width: 0px; white-space: normal; text-decoration-thickness: initial; text-decoration-style: initial; text-decoration-color: initial; float: none; display: inline !important;&quot;&gt;After testing&lt;/span&gt;" style="text;whiteSpace=wrap;html=1;fontFamily=Courier New;fontStyle=0" vertex="1" parent="WIyWlLk6GJQsqaUBKTNV-1">
          <mxGeometry x="650" y="571" width="135" height="20" as="geometry" />
        </mxCell>
        <mxCell id="OmvAzgWS2fx1XK6-3IYc-95" value="&lt;span style=&quot;color: rgb(255, 255, 255); font-size: 12px; font-style: normal; font-variant-ligatures: normal; font-variant-caps: normal; letter-spacing: normal; orphans: 2; text-align: center; text-indent: 0px; text-transform: none; widows: 2; word-spacing: 0px; -webkit-text-stroke-width: 0px; white-space: normal; text-decoration-thickness: initial; text-decoration-style: initial; text-decoration-color: initial; float: none; display: inline !important;&quot;&gt;Question a...&lt;/span&gt;" style="text;whiteSpace=wrap;html=1;fontFamily=Courier New;fontStyle=0" vertex="1" parent="WIyWlLk6GJQsqaUBKTNV-1">
          <mxGeometry x="650" y="591" width="135" height="20" as="geometry" />
        </mxCell>
        <mxCell id="OmvAzgWS2fx1XK6-3IYc-96" value="&lt;span style=&quot;color: rgb(255, 255, 255); text-align: center;&quot;&gt;Question b...&lt;/span&gt;" style="text;whiteSpace=wrap;html=1;fontFamily=Courier New;fontStyle=0" vertex="1" parent="WIyWlLk6GJQsqaUBKTNV-1">
          <mxGeometry x="650" y="611" width="135" height="20" as="geometry" />
        </mxCell>
        <mxCell id="OmvAzgWS2fx1XK6-3IYc-97" value="&lt;span style=&quot;color: rgb(255, 255, 255); text-align: center;&quot;&gt;Question c...&lt;/span&gt;" style="text;whiteSpace=wrap;html=1;fontFamily=Courier New;fontStyle=0" vertex="1" parent="WIyWlLk6GJQsqaUBKTNV-1">
          <mxGeometry x="650" y="631" width="135" height="20" as="geometry" />
        </mxCell>
      </root>
    </mxGraphModel>
  </diagram>
</mxfile>
